<svg xmlns="http://www.w3.org/2000/svg" width="64" height="64" viewBox="0 0 1024 1024"><path d="M0 512a512 512 0 101024 0A512 512 0 100 512z"/><path fill="#FFF" d="M227.346 811.081h69.486a175.36 175.36 0 0048-4.132 28.946 28.946 0 0017.079-15.452 85.211 85.211 0 005.358-34.743v-21.449a60.343 60.343 0 00-7.424-33.518 44.507 44.507 0 00-28.288-15.652 44.38 44.38 0 0025.07-12.27 46.793 46.793 0 006.363-28.27 80.457 80.457 0 00-9.015-43.465 42.679 42.679 0 00-23.625-17.92 157.934 157.934 0 00-43.081-4.425h-59.996v231.278zm72.631-190.427a9.582 9.582 0 015.23 5.485 40.667 40.667 0 011.993 15.214 71.04 71.04 0 01-2.432 24.924 11.904 11.904 0 01-11.282 4.37c-1.427 0-3.438 0-5.998.128v-51.42a46.72 46.72 0 0112.49 1.299zm4.078 89.71a30.446 30.446 0 013.145 18.01v21.56a28.105 28.105 0 01-3.493 17.572 25.6 25.6 0 01-16.219 4.005v-64.713a28.361 28.361 0 0116.567 3.565zm143.561-35.274a77.294 77.294 0 011.426-19.657 6.857 6.857 0 017.315-3.785 7.589 7.589 0 017.314 4.517 52.827 52.827 0 012.212 19.346 39.918 39.918 0 01-1.993 15.726 95.36 95.36 0 01-30.427 14.994 94.464 94.464 0 00-33.28 17.993 45.605 45.605 0 00-6.73 29.001v15.58a42.734 42.734 0 0012.654 37.211 48.713 48.713 0 0027.776 8.503 35.2 35.2 0 0033.573-20.334v16.896h56.155v-95.086a399.214 399.214 0 00-2.998-62.061 40.393 40.393 0 00-17.866-25.436 95.086 95.086 0 00-83.858-1.207 47.05 47.05 0 00-20.352 21.066 89.6 89.6 0 00-5.083 33.92v12.8h54.144v-19.859zm18.286 84.846a54.857 54.857 0 01-1.628 17.646 7.077 7.077 0 01-7.076 3.364 7.515 7.515 0 01-7.644-4.297 57.435 57.435 0 01-1.938-18.999 68.041 68.041 0 012.213-19.712 42.77 42.77 0 0116.073-16.987v38.985zm200.137-88.85a105.106 105.106 0 00-1.5-20.992 33.865 33.865 0 00-8.557-14.629 49.371 49.371 0 00-20.297-12.654 94.848 94.848 0 00-32.074-4.772 87.771 87.771 0 00-33.353 5.851 38.967 38.967 0 00-20.352 16.64 71.515 71.515 0 00-5.997 33.5 63.58 63.58 0 005.485 27.648 74.496 74.496 0 0031.086 25.929 265.765 265.765 0 0133.573 20.279 28.891 28.891 0 013.126 17.005 23.077 23.077 0 01-2.413 12.928 10.368 10.368 0 01-8.576 3.072 7.479 7.479 0 01-7.644-4.571 63.269 63.269 0 01-1.938-19.858v-11.996h-51.2v9.143a82.286 82.286 0 005.851 35.42 41.051 41.051 0 0021.504 18.578 93.349 93.349 0 0037.632 6.857 82.011 82.011 0 0033.939-6.363 39.79 39.79 0 0020.114-18.14 79.451 79.451 0 006.016-34.926 53.54 53.54 0 00-7.863-31.579 90.807 90.807 0 00-33.006-23.131 159.086 159.086 0 01-24.923-14.154 20.315 20.315 0 01-7.314-8.923 49.097 49.097 0 01-1.207-12.8 15.854 15.854 0 012.432-9.655 8.54 8.54 0 017.314-3.218 7.314 7.314 0 017.497 3.51 54.601 54.601 0 011.5 16.64v10.332h51.2v-10.971zM831.03 694.51a114.523 114.523 0 00-6.345-42.789 50.816 50.816 0 00-22.144-24.43 78.629 78.629 0 00-40.083-9.142 77.623 77.623 0 00-35.126 7.625 46.117 46.117 0 00-21.943 21.943 94.318 94.318 0 00-6.711 39.204v55.296a131.218 131.218 0 002.999 32.201 52.535 52.535 0 0010.788 20.297 51.712 51.712 0 0021.797 14.501 91.246 91.246 0 0032.274 5.285 80.018 80.018 0 0031.36-5.358 50.615 50.615 0 0020.645-16.073 54.73 54.73 0 0010.35-20.115 124.965 124.965 0 002.212-26.99V731.96h-54.71v25.07a53.742 53.742 0 01-2.213 19.072 8.667 8.667 0 01-8.778 4.937 7.314 7.314 0 01-7.15-3.657 45.586 45.586 0 01-1.828-16.586V719.8h74.697v-25.143zm-74.697-5.705v-13.861a75.886 75.886 0 011.426-19.639 7.003 7.003 0 017.424-3.657 6.217 6.217 0 016.418 4.297 69.285 69.285 0 011.573 18.999v13.86h-16.841zM765.495 456.01h-26.478v46.847H675.42v-46.793H539.154v-52.645l103.991-204.342h71.973l-101.23 201.819h61.531v-76.8h63.598v76.8h26.478v55.168zm-321.06 38.856a137.307 137.307 0 01-106.79.11 75.703 75.703 0 01-33.773-31.342 99.547 99.547 0 01-11.611-49.627v-.201a146.066 146.066 0 014.534-34.89 216.265 216.265 0 0112.8-36.991c.915-2.085 1.829-4.17 2.89-6.254s2.048-4.114 3.145-6.071l68.48-130.78h71.954l-66.578 124.471a68.974 68.974 0 0112.452-1.206 98.743 98.743 0 0147.543 10.66 70.71 70.71 0 0130.062 31.086 107.21 107.21 0 0110.331 49.006v.2a101.723 101.723 0 01-11.611 50.14 75.685 75.685 0 01-33.829 31.69zm-18.286-78.628a41.728 41.728 0 00-9.143-28.947 33.426 33.426 0 00-26.112-10.13A32.914 32.914 0 00365 387.511a42.057 42.057 0 00-9.143 28.928v.22a33.097 33.097 0 009.143 25.069 42.697 42.697 0 0052.005-.11 33.463 33.463 0 009.143-25.18v-.2z"/></svg>