<svg xmlns="http://www.w3.org/2000/svg" width="64" height="64" viewBox="0 0 1024 1024"><path d="M824.7 225.497h-57.056l-21.398-57.265-21.396 57.265h-57.058l46.36 35.796-21.402 64.42 53.495-39.37 53.489 39.37-21.394-64.42 46.36-35.796zM683.293 411.964h-40.951l-15.356-41.1-15.357 41.1h-40.947l33.271 25.687-15.36 46.237 38.392-28.256 38.389 28.256-15.357-46.237 33.276-25.687zm139.704 205.507H791.96l-11.638-31.153-11.641 31.153h-31.036l25.218 19.467-11.641 35.044 29.1-21.418 29.096 21.418-11.638-35.044 25.217-19.467zm0 0"/><path d="M505.043 143.792c-186.617 17.376-332.772 175.1-332.772 367.34 0 203.848 164.3 369.077 366.944 369.077 114.72 0 232.94-53.017 300.227-135.948-11.255 1.06-38.52 1.748-50.035 1.748-202.645 0-366.945-165.248-366.945-369.092 0-88.445 30.997-169.533 82.58-233.125zm0 0"/></svg>