<svg xmlns="http://www.w3.org/2000/svg" width="64" height="64" viewBox="0 0 1024 1024">
    <path d="M917.376 110.08c23.552 0 42.624 19.072 42.624 42.624v527.744a42.624 42.624 0 01-42.624 42.624H543.744V849.92h245.44c21.376 0 38.656 14.4 38.656 32 0 17.536-16.96 31.744-38.016 32H235.84c-21.312 0-38.592-14.272-38.592-32 0-17.472 16.896-31.68 37.952-32h244.544V723.008l-373.12.064a42.624 42.624 0 01-42.176-36.352L64 680.448V152.704c0-23.552 19.072-42.688 42.624-42.688zM864 171.52H160a32 32 0 00-32 32v424.704a32 32 0 0032 32h704a32 32 0 0032-32V203.456a32 32 0 00-32-32zM345.792 300.544c14.144-10.432 29.888-11.264 42.88 2.368 14.592 15.232 6.848 36.096-8.384 50.688l-77.632 74.432 4.224 4.096 78.08 77.696c14.72 20.416 17.088 36.096 2.944 50.176-14.208 14.016-33.664 9.28-48.64-5.952L240.96 454.4l-4.8-5.952a38.656 38.656 0 015.568-49.152l98.368-93.952zm351.04 4.288l.448.448 98.368 93.952c15.36 14.784 15.936 39.232 1.28 54.592l-.512.512-98.304 99.648c-14.976 15.232-34.432 19.968-48.64 5.952-14.144-14.08-11.84-29.76 2.88-50.176l39.04-39.104c19.84-19.712 34.24-33.92 43.264-42.688L657.088 353.6c-15.296-14.592-23.04-35.456-8.384-50.688 14.592-15.296 32.64-12.352 48.128 1.92z"/>
</svg>