<svg xmlns="http://www.w3.org/2000/svg" width="64" height="64" viewBox="0 0 1024 1024">
    <path d="M512.256 182.016c-184.128 0-333.376 149.248-333.376 333.376v1.472c16.32-5.312 33.664-8.32 51.776-8.32 1.536 0 3.008.128 4.544.256v333.184h56.32c10.048 0 18.176-8.256 18.176-18.24V518.272c0-10.048-8.128-18.176-18.176-18.176h-54.4c5.12-147.648 126.272-265.664 275.072-265.664s269.888 118.08 275.072 265.664h-50.368c-9.984 0-18.24 8.128-18.24 18.176v305.472c0 9.984 8.256 18.24 18.24 18.24h56.32v-333.44c18.304 0 35.84 3.072 52.288 8.512v-1.664c.128-184.128-149.056-333.376-333.248-333.376zM64 675.328c0 73.92 48.256 136.576 114.88 158.4v-316.8C112.256 538.688 64 601.344 64 675.328zm781.632-158.272v316.352C912.064 811.52 960 748.992 960 675.328c0-73.856-47.936-136.256-114.368-158.272z"/>
</svg>