<svg xmlns="http://www.w3.org/2000/svg" width="200" height="200" viewBox="0 0 1024 1024">
    <path fill="#B5202E" d="M512 69.818C267.636 69.818 69.818 267.636 69.818 512S267.636 954.182 512 954.182 954.182 756.364 954.182 512 756.364 69.818 512 69.818zm-27.927 356.073h41.89l-6.981 34.909H477.09l6.982-34.91zM274.618 600.436l18.618-76.8h-55.854l-18.618 76.8h-41.891l41.89-174.545h41.892l-16.291 62.836h55.854l13.964-62.836h41.89l-41.89 174.545h-39.564zm81.455-48.872c0-13.964 2.327-25.6 4.654-34.91l20.946-90.763h41.89l-20.945 90.764c-2.327 9.309-4.654 16.29-4.654 25.6 0 11.636 6.981 18.618 20.945 20.945l-9.309 37.236c-34.91-4.654-53.527-25.6-53.527-48.872zm62.836 48.872h-2.327l9.309-37.236c25.6-2.327 30.254-23.273 37.236-48.873l11.637-46.545h41.89l-13.963 55.854c-9.31 46.546-23.273 76.8-83.782 76.8zm90.764 0 41.89-174.545h39.564l-2.327 6.982h27.927l-6.982 27.927h-27.927l-32.582 139.636h-39.563zm95.418-60.509h-32.582l9.31-37.236h23.272c18.618 0 27.927-6.982 30.254-20.946 0-11.636-2.327-18.618-16.29-20.945l6.981-34.91c32.582 2.328 51.2 20.946 48.873 51.2 0 41.892-32.582 62.837-69.818 62.837zm137.309 60.51c-41.89 0-65.164-23.273-65.164-48.873 0-13.964 2.328-25.6 4.655-34.91l20.945-90.763h41.891l-20.945 90.764c0 9.309-2.327 18.618-2.327 27.927 0 11.636 9.309 20.945 23.272 20.945 30.255 0 34.91-23.272 41.891-48.872l20.946-88.437h41.89l-23.272 97.746c-11.637 44.218-25.6 74.472-83.782 74.472z"/>
</svg>