<svg xmlns="http://www.w3.org/2000/svg" width="64" height="64" class="icon" viewBox="0 0 1024 1024"><path d="M268.45000000000005 493.55a233.03 233.03 0 10466.06 0 233.03 233.03 0 10-466.06 0zM501.52 185.35H478.9c-8.28 0-15-6.72-15-15V87.59c0-8.28 6.72-15 15-15h22.62c8.28 0 15 6.72 15 15v82.76c0 8.28-6.72 15-15 15zm-220.15 77.41l-16 16c-5.86 5.86-15.36 5.86-21.21 0l-58.52-58.52c-5.86-5.86-5.86-15.36 0-21.21l16-16c5.86-5.86 15.36-5.86 21.21 0l58.52 58.52c5.86 5.86 5.86 15.35 0 21.21zm-95.61 215.72v22.62c0 8.28-6.72 15-15 15H88c-8.28 0-15-6.72-15-15v-22.62c0-8.28 6.72-15 15-15h82.76c8.28 0 15 6.72 15 15zm84.93 220.15l16 16c5.86 5.86 5.86 15.36 0 21.21l-58.52 58.52c-5.86 5.86-15.36 5.86-21.21 0l-16-16c-5.86-5.86-5.86-15.36 0-21.21l58.52-58.52c5.85-5.86 15.35-5.86 21.21 0zm215.72 95.61h22.62c8.28 0 15 6.72 15 15V892c0 8.28-6.72 15-15 15h-22.62c-8.28 0-15-6.72-15-15v-82.76c0-8.28 6.72-15 15-15zm220.15-84.93l16-16c5.86-5.86 15.36-5.86 21.21 0l58.52 58.52c5.86 5.86 5.86 15.36 0 21.21l-16 16c-5.86 5.86-15.36 5.86-21.21 0l-58.52-58.52c-5.86-5.85-5.86-15.35 0-21.21zm95.61-215.72v-22.62c0-8.28 6.72-15 15-15h82.76c8.28 0 15 6.72 15 15v22.62c0 8.28-6.72 15-15 15h-82.76c-8.28 0-15-6.72-15-15zm-84.93-220.15l-16-16c-5.86-5.86-5.86-15.36 0-21.21l58.52-58.52c5.86-5.86 15.36-5.86 21.21 0l16 16c5.86 5.86 5.86 15.36 0 21.21l-58.52 58.52c-5.86 5.86-15.35 5.86-21.21 0z"/></svg>