<svg xmlns="http://www.w3.org/2000/svg" width="64" height="64" viewBox="0 0 1024 1024"><path d="M951.226 948.217a25.89 25.89 0 01-18.354 7.606c-6.664 0-13.324-2.514-18.354-7.606l-246.08-245.64c-65.937 56.82-148.907 88.061-236.905 88.061-200.51 0-363.56-162.733-363.56-362.805 0-200.07 163.05-362.867 363.497-362.867 200.385 0 363.497 162.795 363.497 362.867 0 88.564-31.869 172.037-89.76 238.161l246.019 245.578c10.183 10.12 10.183 26.527 0 36.645zM743.802 427.833c0-171.91-140.107-311.766-312.333-311.766-172.225 0-312.331 139.856-312.331 311.766 0 171.911 140.106 311.766 312.331 311.766 83.41 0 161.855-32.434 220.812-91.33 59.024-58.896 91.52-137.215 91.52-220.436zM421.664 228.832c-105.283 16.97-181.717 106.54-181.717 213.018 0 8.989.755 18.67 2.452 30.487 1.697 11.878-6.6 22.815-18.48 24.45a25.08 25.08 0 01-3.08.189c-10.623 0-19.925-7.857-21.434-18.668-1.948-13.828-2.828-25.458-2.828-36.52 0-127.85 91.77-235.396 218.174-255.761 11.753-2.011 23.005 6.097 24.89 17.914 1.885 11.88-6.16 23.006-17.977 24.89z"/></svg>