<svg xmlns="http://www.w3.org/2000/svg" width="200" height="200" viewBox="0 0 1024 1024">
    <path fill="#294EFF" d="M32 512a480 480 0 1 0 960 0 480 480 0 1 0-960 0Z"/>
    <path fill="#FFF" d="M408.416 251.2H259.36v538.176h50.88V630.592h68.032v158.784h50.56v-518.4a20.736 20.736 0 0 0-20.416-19.776zm-30.144 327.552H310.24V466.656h68.032v112.096zm0-161.984H310.24V302.72h68.032v114.048zm193.088 24H459.904v51.84h57.376l-64.8 259.2 50.208 12.608 78.4-311.68a10.048 10.048 0 0 0-9.728-12z"/>
    <path fill="#FFF" d="m678.944 502.944 97.184-81.632-32.384-39.552-89.44 73.568-9.056-17.184v-75.168a16.512 16.512 0 0 0-16.512-16.832H494.272v51.84h99.136v391.36h51.84V549.92l112.736 214.816 45.376-23.968-124.416-237.824z"/>
    <path fill="#FFA50A" d="M713.92 304H529.28v-51.84h172.032c6.976 0 12.608 5.664 12.608 12.64V304z"/>
</svg>