<svg xmlns="http://www.w3.org/2000/svg" width="64" height="64" viewBox="0 0 1024 1024">
    <path d="M416.087 960h191.927V851.237c0-12.764 6.436-25.6 19.2-32.037 32-12.763 63.927-32.037 89.527-51.237 12.763-6.436 25.6-6.436 38.363 0l95.964 57.564L947.03 659.09l-95.963-57.563c-12.764-12.654-19.164-25.49-12.764-38.254 0-19.2 6.437-32.036 6.437-51.236 0-19.164 0-32.037-6.437-51.2 0-12.764 6.437-25.637 12.764-32.074l95.963-57.526L851.068 204.8l-95.964 57.563c-12.763 6.4-25.6 6.4-38.363 0-25.6-19.2-57.527-38.4-89.527-51.236-12.764-12.764-19.2-25.6-19.2-38.364V64.073H416.087v108.8c0 12.727-6.437 25.6-19.2 32.037-32 12.727-63.927 32.036-89.527 51.2-12.763 6.436-25.6 6.436-38.363 0l-95.964-51.2L77.07 371.237l95.963 57.526c12.764 6.437 19.164 19.2 12.764 32.074 0 19.163-6.437 32.036-6.437 51.2 0 19.2 0 32.036 6.437 51.236 6.4 12.764 0 25.6-12.764 32.037L77.07 652.873l95.963 166.437 95.964-57.564c12.763-6.436 25.6-6.436 38.363 0 25.6 19.164 57.527 38.364 89.527 51.237a35.255 35.255 0 0119.2 32.036V960zm223.854 64H384.16c-19.2 0-32.037-12.763-32.037-32.037V870.437c-25.6-12.764-51.2-25.637-70.364-38.4l-102.29 64c-12.764 6.436-32.037 6.436-44.8-12.764L6.67 659.31c-12.727-19.2-6.4-38.4 12.763-44.8l102.29-64v-76.837L19.544 409.71c-19.2-6.437-25.6-25.637-12.763-44.8l127.89-224c6.436-12.764 25.6-19.164 44.8-6.437l102.29 64c19.164-12.763 44.764-32.036 70.364-38.363V32.037C352.124 12.837 364.887 0 384.16 0h255.89c19.164 0 32.037 12.763 32.037 32.037v121.636c25.6 12.764 51.2 25.6 70.363 38.364l102.29-63.964c12.764-6.436 32.037-6.436 44.764 12.727l127.927 224c12.727 19.2 6.4 38.363-12.763 44.8l-102.29 63.963V550.4l102.29 64c12.763 6.437 19.163 25.6 12.763 44.8L889.504 883.163c-6.4 12.764-25.6 19.2-44.763 12.764l-102.29-63.964c-19.164 12.727-44.764 32.037-70.364 38.364v121.636c-.11 19.274-12.873 32.037-32.146 32.037zM512.05 704.073c-108.727 0-191.964-83.163-191.964-192.036C320.087 403.163 403.324 320 512.05 320s191.964 83.273 191.964 192.037c0 108.8-83.237 192.036-191.964 192.036zm0-320a128.293 128.293 0 00-127.89 127.964A128.256 128.256 0 00512.05 640a128.256 128.256 0 00127.89-127.963 128.293 128.293 0 00-127.89-127.964z"/>
</svg>