<svg xmlns="http://www.w3.org/2000/svg" width="64" height="64" class="icon" viewBox="0 0 1024 1024">
    <path d="M3.722 908.385s-8.125 53.151 26.256 87.537c27.504 27.505 78.162 21.888 78.162 21.888l376.207-389.478-99.44-95.023L3.721 908.385z"/>
    <path d="M668.841 584.458L236.774 172.55l-6.522-89.692L107.469 3.292 72.607 38.36l-34.862 35.01L2.883 108.38 81.34 231.63l83.533 7.316L599.84 652.314l-69.018 70.789c98.847 99.174 197.596 198.405 296.402 297.6 101.668-26.988 160.502-98.483 193.193-194.73L724.05 528.318l-55.209 56.141z"/>
    <path d="M640.374 481.29l48.701-50.826c97.29 42.22 197.514 25.047 265.472-33.597 66.35-57.8 66.57-171.04 66.57-171.04l-52.945-20.781-102.344 103.792-149.56-148.131 103.04-104.469-20.742-52.946s-103.04 0-171.735 67.943c-64.445 63.001-84.475 167.485-39.398 261.96l-50.77 50.093 103.71 98.002z"/>
</svg>