<svg xmlns="http://www.w3.org/2000/svg" width="200" height="200" viewBox="0 0 1024 1024">
    <path fill="#06F" d="M512 32C246.944 32 32 246.944 32 512c0 265.056 214.944 480 480 480 265.056 0 480-214.944 480-480 0-265.056-214.944-480-480-480zm-97.184 511.936-.096 1.6c-1.6 21.856-6.752 47.04-13.824 72.416l25.696-19.392 76.096 86.464c9.856 35.36-3.52 67.616-3.52 67.616l-102.56-119.904v-.096a645.792 645.792 0 0 1-35.68 90.752c-24.224 48.96-59.136 58.592-95.904 61.824-36.832 3.2-24.96-5.696-24.96-5.696 72.864-59.456 83.584-94.08 103.712-131.872 12.768-23.904 21.856-68.896 27.104-103.712H246.4s5.12-33.44 20.576-44.672h108.832c.64-16.416-1.376-110.144-2.144-140.8h-52.928c-9.856 48.224-43.904 60.736-51.52 64.384-7.488 3.648-25.28 7.616-22.624 0 2.816-7.584 28.928-49.504 46.304-118.592 17.472-69.216 68.48-66.432 68.48-66.432-13.76 24.096-24 78.848-24 78.848H508.48c10.816 0 11.328 41.792 11.328 41.792h-97.28c-.736 24.32-3.008 89.792-5.344 140.8h102.304s13.088 16.48 13.088 44.672h-117.76zM786.08 722.848h-93.856l-74.464 49.92-17.6-49.92h-42.944V307.904H786.08v414.944zm-153.856-3.744 60.832-40.832h48.864-.096V354.176H602.752v324.096h15.104l14.368 40.832z"/>
</svg>